<?xml version="1.0" standalone="no"?>
<!DOCTYPE svg PUBLIC "-//W3C//DTD SVG 20010904//EN"
 "http://www.w3.org/TR/2001/REC-SVG-20010904/DTD/svg10.dtd">
<svg version="1.0" xmlns="http://www.w3.org/2000/svg"
 width="308.000000pt" height="308.000000pt" viewBox="0 0 308.000000 308.000000"
 preserveAspectRatio="xMidYMid meet">

<g transform="translate(0.000000,308.000000) scale(0.100000,-0.100000)"
fill="#000000" stroke="none">
<path d="M0 1540 l0 -1540 1540 0 1540 0 0 1540 0 1540 -1540 0 -1540 0 0
-1540z m1810 1405 c0 -2 -21 -14 -47 -25 -64 -28 -164 -93 -160 -104 2 -5 54
-25 117 -46 63 -20 126 -42 140 -50 14 -7 83 -28 155 -45 71 -18 177 -51 234
-73 58 -23 107 -40 109 -37 2 2 7 34 10 72 l5 67 49 -54 c27 -30 68 -88 91
-129 23 -42 78 -113 123 -160 44 -47 94 -104 111 -126 39 -52 97 -154 90 -161
-3 -3 -22 3 -44 14 -42 22 -109 42 -116 36 -2 -2 4 -52 14 -111 10 -58 23
-176 29 -262 5 -86 14 -201 20 -256 5 -55 10 -110 10 -123 l0 -23 51 27 c27
15 66 46 86 67 l36 40 -7 -39 c-18 -93 -79 -236 -139 -323 -21 -31 -34 -67
-43 -121 -15 -83 -61 -220 -74 -220 -5 0 -18 13 -30 30 -11 16 -34 39 -50 50
l-30 21 -58 -35 c-69 -42 -165 -86 -242 -111 -30 -9 -58 -20 -61 -24 -4 -3 -9
-59 -12 -123 l-4 -118 26 6 c59 13 160 49 215 76 32 16 60 27 62 25 3 -3 -23
-27 -58 -55 -184 -146 -384 -239 -608 -282 -100 -19 -260 -36 -260 -27 0 3 17
11 38 17 44 14 162 72 162 80 0 3 -19 16 -43 29 -23 13 -65 42 -93 63 l-51 38
-153 0 -152 0 7 -56 c4 -31 13 -75 21 -97 8 -22 12 -42 9 -45 -8 -9 -92 28
-152 67 -32 21 -83 63 -114 94 -53 54 -59 58 -155 82 -105 27 -259 96 -309
139 l-30 25 75 1 c66 0 185 21 199 35 2 3 -23 61 -57 129 -34 69 -69 143 -78
166 -13 31 -32 51 -78 82 -33 23 -87 61 -119 85 -31 24 -61 42 -66 39 -12 -8
-54 -100 -76 -164 -9 -30 -21 -50 -25 -45 -18 18 -52 184 -58 278 -5 92 -8
104 -38 150 -19 28 -36 64 -40 81 -7 34 2 44 74 84 41 23 47 32 76 110 18 47
49 117 69 155 l37 71 -46 82 c-26 45 -51 79 -56 76 -8 -5 -82 -115 -135 -200
-8 -13 -7 2 3 46 52 238 169 450 353 643 116 121 145 140 95 62 -38 -61 -84
-153 -84 -171 0 -8 17 -8 63 2 34 7 73 13 87 14 18 0 47 22 100 75 41 42 105
99 143 127 37 29 67 56 67 62 0 5 -18 33 -40 62 -22 29 -36 55 -31 58 17 11
256 27 299 21 30 -5 61 0 105 14 91 30 192 52 277 61 91 9 180 12 180 5z"/>
<path d="M1700 2679 c-74 -5 -162 -12 -195 -16 l-60 -8 -32 -60 c-38 -69 -93
-232 -93 -273 0 -26 70 -155 153 -283 59 -91 56 -90 129 -67 176 57 385 118
403 118 24 0 164 142 219 223 l40 57 -21 28 c-30 41 -220 208 -287 253 -40 27
-68 39 -90 38 -17 -1 -92 -6 -166 -10z"/>
<path d="M955 2541 c-184 -63 -250 -103 -398 -242 -58 -55 -70 -72 -83 -119
-31 -120 -35 -321 -8 -497 7 -49 12 -50 105 -33 30 6 99 15 154 20 91 8 117
16 290 85 105 42 195 82 202 88 6 7 17 70 23 142 7 72 20 174 31 227 l19 97
-64 83 c-35 46 -78 107 -96 136 -18 30 -39 52 -48 51 -10 0 -66 -17 -127 -38z"/>
<path d="M2285 2126 c-44 -7 -115 -21 -157 -30 l-77 -17 -98 -122 c-139 -172
-203 -261 -203 -283 0 -18 182 -225 287 -327 46 -44 53 -48 123 -57 90 -11
330 -13 347 -2 13 8 87 168 158 339 24 58 35 100 32 115 -7 26 -123 224 -193
328 l-47 70 -46 -1 c-25 -1 -82 -7 -126 -13z"/>
<path d="M753 1591 c-38 -32 -103 -94 -145 -139 l-77 -81 15 -53 c24 -81 58
-167 92 -234 25 -50 48 -75 129 -140 164 -134 212 -166 236 -160 27 7 151 101
237 178 l64 57 -27 168 c-15 92 -31 201 -35 242 l-7 75 -45 17 c-73 28 -358
129 -364 129 -3 0 -36 -26 -73 -59z"/>
<path d="M1527 1363 c-63 -100 -190 -330 -198 -357 -10 -33 -53 -269 -64 -348
-6 -47 -6 -47 37 -74 24 -15 95 -52 158 -83 l115 -55 179 -4 178 -4 60 63 c76
82 239 298 312 414 l57 90 -53 44 c-29 25 -95 86 -146 137 l-93 93 -243 61
c-133 33 -250 60 -259 60 -9 0 -27 -17 -40 -37z"/>
</g>
</svg>
